<?xml version="1.0" encoding="utf-8"?>
<!-- Generator: Adobe Illustrator 25.3.1, SVG Export Plug-In . SVG Version: 6.00 Build 0)  -->
<svg version="1.1" id="Layer_1" xmlns="http://www.w3.org/2000/svg" xmlns:xlink="http://www.w3.org/1999/xlink" x="0px" y="0px"
	 viewBox="0 0 65 58.7" style="enable-background:new 0 0 65 58.7;" xml:space="preserve">
<g id="Layer_2_1_">
	<g id="Layer_1-2">
		<g id="Componente_2_1">
			<path id="Caminho_10" d="M26,10.6c-0.7,0.1-1.2,0.7-1.1,1.4v3.5h-8.5c-0.7,0-1.3,0.7-1.3,1.4c0,0.7,0.7,1.3,1.4,1.3l0,0H18
				l3.8,31c0.1,0.7,0.6,1.2,1.3,1.2h7c0.7,0,1.3-0.6,1.3-1.3s-0.6-1.3-1.3-1.3c0,0,0,0,0,0h-5.9l-3.7-29.6h23.5l-3.7,29.6h-5.9
				c-0.7-0.1-1.4,0.5-1.4,1.2c-0.1,0.7,0.5,1.4,1.2,1.4c0.1,0,0.2,0,0.2,0h7c0.7,0,1.2-0.5,1.3-1.2l3.8-31h1.5
				c0.7,0,1.3-0.6,1.3-1.3c0-0.7-0.6-1.3-1.3-1.3l0,0h-8.3V12c0-0.7-0.6-1.3-1.3-1.3L26,10.6z M27.5,13.3h9.7v2.2h-9.6L27.5,13.3z
				 M27,23.4c-0.7,0-1.3,0.6-1.3,1.4v16.8c0,0.7,0.6,1.3,1.3,1.3c0,0,0,0,0,0c0.7,0,1.3-0.6,1.3-1.3l0,0V24.8
				C28.3,24,27.7,23.4,27,23.4z M32.3,23.4c-0.7,0-1.3,0.6-1.3,1.4v16.8c0,0.7,0.6,1.3,1.3,1.3c0,0,0,0,0,0c0.7,0,1.3-0.6,1.3-1.3
				l0,0V24.8C33.6,24,33,23.4,32.3,23.4L32.3,23.4z M37.6,23.4c-0.7,0-1.3,0.6-1.3,1.4v16.8c0,0.7,0.6,1.3,1.3,1.3s1.3-0.6,1.3-1.3
				c0,0,0,0,0,0l0,0V24.8C38.9,24,38.3,23.4,37.6,23.4L37.6,23.4z"/>
		</g>
	</g>
</g>
</svg>
