<?xml version="1.0" encoding="utf-8"?>
<!-- Generator: Adobe Illustrator 25.3.1, SVG Export Plug-In . SVG Version: 6.00 Build 0)  -->
<svg version="1.1" id="Layer_1" xmlns="http://www.w3.org/2000/svg" xmlns:xlink="http://www.w3.org/1999/xlink" x="0px" y="0px"
	 viewBox="0 0 65 58.7" style="enable-background:new 0 0 65 58.7;" xml:space="preserve">
<g id="Layer_2_1_">
	<g id="Layer_1-2">
		<g id="Componente_5_1">
			<path id="Caminho_1" d="M51.7,16.1l-9.5-8c-2.3-1.9-5.7-1.6-7.7,0.7L17.2,29.5L18,45.2l0.1,1.3l0,0l0.9-0.1l9.2-1.1l0,0l6.8-0.8
				l17.4-20.7C54.3,21.5,54,18.1,51.7,16.1z M35.3,41l-0.5-6.1l-7.5,0.7l-0.6-7.5l-6.1,0.5l9.3-11.1l14.8,12.4L35.3,41z M19.6,38.2
				l-0.4-7.4l5.5-0.5l0.6,7.5l7.5-0.7l0.5,5.5l-7.3,0.9L19.6,38.2z M45.9,28.3L31.2,16l1.3-1.6l14.8,12.3L45.9,28.3z"/>
		</g>
	</g>
</g>
</svg>
