<?xml version="1.0" encoding="utf-8"?>
<!-- Generator: Adobe Illustrator 25.3.1, SVG Export Plug-In . SVG Version: 6.00 Build 0)  -->
<svg version="1.1" id="Layer_1" xmlns="http://www.w3.org/2000/svg" xmlns:xlink="http://www.w3.org/1999/xlink" x="0px" y="0px"
	 viewBox="0 0 65 58.7" style="enable-background:new 0 0 65 58.7;" xml:space="preserve">
<g>
	<path d="M10.1,15.3c0-2.9,0.9-5.2,2.8-7c1.9-1.8,4.3-2.7,7.4-2.7c3.1,0,5.6,0.9,7.4,2.7c1.9,1.8,2.8,4.2,2.8,7.2v2.3
		c0,2.9-0.9,5.2-2.8,7c-1.9,1.8-4.3,2.6-7.4,2.6c-3.1,0-5.5-0.9-7.4-2.7c-1.9-1.8-2.8-4.2-2.8-7.2V15.3z M16.3,17.8
		c0,1.3,0.4,2.3,1.1,3.1c0.7,0.8,1.7,1.2,2.9,1.2s2.2-0.4,2.9-1.2c0.7-0.8,1.1-1.9,1.1-3.2v-2.4c0-1.3-0.4-2.3-1.1-3.1
		c-0.7-0.8-1.7-1.2-2.9-1.2c-1.2,0-2.1,0.4-2.9,1.2c-0.7,0.8-1.1,1.9-1.1,3.3V17.8z M22.2,49.8l-4.6-2.5l23-36.8l4.6,2.5L22.2,49.8z
		 M32.6,41.8c0-2.9,0.9-5.2,2.8-7c1.9-1.8,4.3-2.7,7.4-2.7c3.1,0,5.5,0.9,7.4,2.6c1.9,1.8,2.8,4.2,2.8,7.3v2.3c0,2.9-0.9,5.2-2.8,7
		c-1.9,1.8-4.3,2.7-7.4,2.7c-3.1,0-5.6-0.9-7.5-2.7c-1.9-1.8-2.8-4.2-2.8-7.1V41.8z M38.8,44.3c0,1.2,0.4,2.2,1.2,3s1.7,1.3,2.9,1.3
		c2.6,0,3.9-1.5,3.9-4.4v-2.5c0-1.3-0.4-2.3-1.1-3.1c-0.7-0.8-1.7-1.2-2.9-1.2s-2.2,0.4-2.9,1.2c-0.7,0.8-1.1,1.9-1.1,3.2V44.3z"/>
</g>
</svg>
