<?xml version="1.0" encoding="utf-8"?>
<!-- Generator: Adobe Illustrator 25.3.1, SVG Export Plug-In . SVG Version: 6.00 Build 0)  -->
<svg version="1.1" id="Layer_1" xmlns="http://www.w3.org/2000/svg" xmlns:xlink="http://www.w3.org/1999/xlink" x="0px" y="0px"
	 viewBox="0 0 65 58.7" style="enable-background:new 0 0 65 58.7;" xml:space="preserve">
<style type="text/css">
	.st0{stroke:#FFFFFF;}
</style>
<g id="Layer_2_1_">
	<g id="Layer_1-2">
		<g id="Componente_3_1">
			<path id="Caminho_9" class="st0" d="M50.9,17.8c-0.1,0.6-0.5,1-1.1,1h-0.2l-3.5-0.5c6.1,7.8,4.7,19.1-3.1,25.2S24,48.2,17.9,40.4
				S13.2,21.3,21,15.2c3.2-2.5,7-3.8,11-3.8c0.6,0,1.1,0.5,1.1,1.1c0,0.6-0.5,1.1-1.1,1.1l0,0c-8.7,0-15.7,7-15.7,15.7
				c0,8.7,7,15.7,15.7,15.7c8.7,0,15.7-7,15.7-15.7c0-3.6-1.2-7.1-3.5-9.9l-0.2,4.3c0,0.6-0.5,1.1-1.1,1.1l0,0
				c-0.6,0-1.1-0.5-1.1-1.1c0,0,0,0,0,0l0,0l0,0l0.3-7v-0.4c0,0,0-0.1,0.1-0.1l0,0c0-0.1,0.1-0.1,0.1-0.1l0,0
				c0.1-0.1,0.1-0.1,0.2-0.2l0,0c0,0,0.1-0.1,0.2-0.1l0,0l0.2-0.1h0.4l6.6,0.9C50.5,16.7,51,17.2,50.9,17.8
				C51,17.8,51,17.8,50.9,17.8L50.9,17.8L50.9,17.8z"/>
		</g>
	</g>
</g>
</svg>
